<?xml version="1.0" encoding="UTF-8" standalone="no"?>
<!-- Created with Inkscape (http://www.inkscape.org/) -->

<svg
   width="1049.481"
   height="448.81296"
   viewBox="0 0 277.67518 118.74843"
   version="1.1"
   id="svg5"
   xml:space="preserve"
   inkscape:version="1.2.2 (b0a84865, 2022-12-01)"
   sodipodi:docname="logo.svg"
   xmlns:inkscape="http://www.inkscape.org/namespaces/inkscape"
   xmlns:sodipodi="http://sodipodi.sourceforge.net/DTD/sodipodi-0.dtd"
   xmlns="http://www.w3.org/2000/svg"
   xmlns:svg="http://www.w3.org/2000/svg"><sodipodi:namedview
     id="namedview7"
     pagecolor="#ffffff"
     bordercolor="#000000"
     borderopacity="0.25"
     inkscape:showpageshadow="2"
     inkscape:pageopacity="0.0"
     inkscape:pagecheckerboard="0"
     inkscape:deskcolor="#d1d1d1"
     inkscape:document-units="mm"
     showgrid="false"
     inkscape:zoom="0.51701413"
     inkscape:cx="662.45771"
     inkscape:cy="245.64125"
     inkscape:window-width="1470"
     inkscape:window-height="806"
     inkscape:window-x="0"
     inkscape:window-y="37"
     inkscape:window-maximized="1"
     inkscape:current-layer="g7233" /><defs
     id="defs2" /><g
     inkscape:label="Calque 1"
     inkscape:groupmode="layer"
     id="layer1"
     transform="translate(6.7446205e-7,-14.615772)"><g
       id="g6615"
       transform="matrix(0.99088684,0,0,0.99088684,0,13.832586)"><g
         id="g6635"><g
           id="g6655"><g
             aria-label="f2ap"
             id="text6942"
             style="font-size:98.0704px;line-height:0;fill:#bf6100;stroke-width:0.183882"><g
               id="g7276"><g
                 id="g7233"><g
                   id="g7388"><path
                     class="cls-5"
                     d="m 94.377851,31.772427 a 19.627696,18.577445 0 0 1 13.993849,5.497947 19.845525,18.783618 0 0 1 5.79886,13.338775 h 8.14549 c 0,-14.644537 -12.54167,-26.552596 -27.941501,-26.552596 z"
                     id="path320"
                     style="font-size:98.0704px;line-height:0;fill:#bf6100;stroke-width:0.321091;fill-opacity:1" /><path
                     class="cls-5"
                     d="m 94.387753,18.0994 c 18.845487,0 34.179317,14.594558 34.179317,32.525368 h 8.14548 c 0,-22.179227 -18.98411,-40.238118 -42.324797,-40.238118 z"
                     id="path322"
                     style="font-size:98.0704px;line-height:0;fill:#bf6100;stroke-width:0.321091;fill-opacity:1" /><g
                     id="layer2"
                     inkscape:label="Linies"
                     style="font-size:98.0704px;line-height:0;fill:#007ea5;stroke-width:0.183882;display:inline;fill-opacity:1"
                     transform="matrix(0.61871526,0,0,0.61871526,-5.2753337,-24.371704)"><path
                       style="color:#000000;font-style:normal;font-variant:normal;font-weight:normal;font-stretch:normal;font-size:medium;line-height:normal;font-family:sans-serif;font-variant-ligatures:normal;font-variant-position:normal;font-variant-caps:normal;font-variant-numeric:normal;font-variant-alternates:normal;font-feature-settings:normal;text-indent:0;text-align:start;text-decoration:none;text-decoration-line:none;text-decoration-style:solid;text-decoration-color:#000000;letter-spacing:normal;word-spacing:normal;text-transform:none;writing-mode:lr-tb;direction:ltr;text-orientation:mixed;dominant-baseline:auto;baseline-shift:baseline;text-anchor:start;white-space:normal;shape-padding:0;clip-rule:nonzero;display:inline;overflow:visible;visibility:visible;opacity:1;isolation:auto;mix-blend-mode:normal;color-interpolation:sRGB;color-interpolation-filters:linearRGB;solid-color:#000000;solid-opacity:1;vector-effect:none;fill:#007ea5;fill-opacity:1;fill-rule:nonzero;stroke:none;stroke-width:41.5748;stroke-linecap:butt;stroke-linejoin:miter;stroke-miterlimit:4;stroke-dasharray:none;stroke-dashoffset:0;stroke-opacity:1;color-rendering:auto;image-rendering:auto;shape-rendering:auto;text-rendering:auto;enable-background:accumulate"
                       d="m 181.13086,275.13672 a 68.892408,68.892408 0 0 1 -29.46484,29.32812 l 161.75781,162.38868 38.99805,-19.76368 z m 213.36328,214.1875 -38.99805,19.76367 81.96289,82.2832 a 68.892409,68.892409 0 0 1 29.47071,-29.33203 z"
                       transform="matrix(0.26458333,0,0,0.26458333,-6.6789703,32.495842)"
                       id="path9722"
                       inkscape:connector-curvature="0" /><path
                       style="color:#000000;font-style:normal;font-variant:normal;font-weight:normal;font-stretch:normal;font-size:medium;line-height:normal;font-family:sans-serif;font-variant-ligatures:normal;font-variant-position:normal;font-variant-caps:normal;font-variant-numeric:normal;font-variant-alternates:normal;font-feature-settings:normal;text-indent:0;text-align:start;text-decoration:none;text-decoration-line:none;text-decoration-style:solid;text-decoration-color:#000000;letter-spacing:normal;word-spacing:normal;text-transform:none;writing-mode:lr-tb;direction:ltr;text-orientation:mixed;dominant-baseline:auto;baseline-shift:baseline;text-anchor:start;white-space:normal;shape-padding:0;clip-rule:nonzero;display:inline;overflow:visible;visibility:visible;opacity:1;isolation:auto;mix-blend-mode:normal;color-interpolation:sRGB;color-interpolation-filters:linearRGB;solid-color:#000000;solid-opacity:1;vector-effect:none;fill:#007ea5;fill-opacity:1;fill-rule:nonzero;stroke:none;stroke-width:41.5748;stroke-linecap:butt;stroke-linejoin:miter;stroke-miterlimit:4;stroke-dasharray:none;stroke-dashoffset:0;stroke-opacity:1;color-rendering:auto;image-rendering:auto;shape-rendering:auto;text-rendering:auto;enable-background:accumulate"
                       d="m 581.64648,339.39062 -91.57617,46.41016 6.75196,43.18945 103.61523,-52.51367 A 68.892409,68.892409 0 0 1 581.64648,339.39062 Z M 436.9082,412.74219 220.38281,522.47656 a 68.892408,68.892408 0 0 1 18.79492,37.08985 L 443.66016,455.93359 Z"
                       transform="matrix(0.26458333,0,0,0.26458333,-6.6789703,32.495842)"
                       id="path9729"
                       inkscape:connector-curvature="0" /><path
                       style="color:#000000;font-style:normal;font-variant:normal;font-weight:normal;font-stretch:normal;font-size:medium;line-height:normal;font-family:sans-serif;font-variant-ligatures:normal;font-variant-position:normal;font-variant-caps:normal;font-variant-numeric:normal;font-variant-alternates:normal;font-feature-settings:normal;text-indent:0;text-align:start;text-decoration:none;text-decoration-line:none;text-decoration-style:solid;text-decoration-color:#000000;letter-spacing:normal;word-spacing:normal;text-transform:none;writing-mode:lr-tb;direction:ltr;text-orientation:mixed;dominant-baseline:auto;baseline-shift:baseline;text-anchor:start;white-space:normal;shape-padding:0;clip-rule:nonzero;display:inline;overflow:visible;visibility:visible;opacity:1;isolation:auto;mix-blend-mode:normal;color-interpolation:sRGB;color-interpolation-filters:linearRGB;solid-color:#000000;solid-opacity:1;vector-effect:none;fill:#007ea5;fill-opacity:1;fill-rule:nonzero;stroke:none;stroke-width:41.5748;stroke-linecap:butt;stroke-linejoin:miter;stroke-miterlimit:4;stroke-dasharray:none;stroke-dashoffset:0;stroke-opacity:1;color-rendering:auto;image-rendering:auto;shape-rendering:auto;text-rendering:auto;enable-background:accumulate"
                       d="M 367.27539,142.4375 262.79492,346.4082 293.64258,377.375 404.26562,161.41797 A 68.892408,68.892408 0 0 1 367.27539,142.4375 Z m -131.6543,257.02148 -52.92187,103.31446 a 68.892409,68.892409 0 0 1 36.98633,18.97851 l 46.78125,-91.32812 z"
                       transform="matrix(0.26458333,0,0,0.26458333,-6.6789703,32.495842)"
                       id="path9713"
                       inkscape:connector-curvature="0" /><path
                       style="color:#000000;font-style:normal;font-variant:normal;font-weight:normal;font-stretch:normal;font-size:medium;line-height:normal;font-family:sans-serif;font-variant-ligatures:normal;font-variant-position:normal;font-variant-caps:normal;font-variant-numeric:normal;font-variant-alternates:normal;font-feature-settings:normal;text-indent:0;text-align:start;text-decoration:none;text-decoration-line:none;text-decoration-style:solid;text-decoration-color:#000000;letter-spacing:normal;word-spacing:normal;text-transform:none;writing-mode:lr-tb;direction:ltr;text-orientation:mixed;dominant-baseline:auto;baseline-shift:baseline;text-anchor:start;white-space:normal;shape-padding:0;clip-rule:nonzero;display:inline;overflow:visible;visibility:visible;opacity:1;isolation:auto;mix-blend-mode:normal;color-interpolation:sRGB;color-interpolation-filters:linearRGB;solid-color:#000000;solid-opacity:1;vector-effect:none;fill:#007ea5;fill-opacity:1;fill-rule:nonzero;stroke:none;stroke-width:41.5748;stroke-linecap:butt;stroke-linejoin:miter;stroke-miterlimit:4;stroke-dasharray:none;stroke-dashoffset:0;stroke-opacity:1;color-rendering:auto;image-rendering:auto;shape-rendering:auto;text-rendering:auto;enable-background:accumulate"
                       d="m 150.76758,304.91797 a 68.892408,68.892408 0 0 1 -34.41602,7.19531 68.892408,68.892408 0 0 1 -6.65039,-0.69531 l 30.90235,197.66211 a 68.892409,68.892409 0 0 1 34.41601,-7.19531 68.892409,68.892409 0 0 1 6.64649,0.69531 z"
                       transform="matrix(0.26458333,0,0,0.26458333,-6.6789703,32.495842)"
                       id="path1015"
                       inkscape:connector-curvature="0" /><path
                       style="color:#000000;font-style:normal;font-variant:normal;font-weight:normal;font-stretch:normal;font-size:medium;line-height:normal;font-family:sans-serif;font-variant-ligatures:normal;font-variant-position:normal;font-variant-caps:normal;font-variant-numeric:normal;font-variant-alternates:normal;font-feature-settings:normal;text-indent:0;text-align:start;text-decoration:none;text-decoration-line:none;text-decoration-style:solid;text-decoration-color:#000000;letter-spacing:normal;word-spacing:normal;text-transform:none;writing-mode:lr-tb;direction:ltr;text-orientation:mixed;dominant-baseline:auto;baseline-shift:baseline;text-anchor:start;white-space:normal;shape-padding:0;clip-rule:nonzero;display:inline;overflow:visible;visibility:visible;opacity:1;isolation:auto;mix-blend-mode:normal;color-interpolation:sRGB;color-interpolation-filters:linearRGB;solid-color:#000000;solid-opacity:1;vector-effect:none;fill:#007ea5;fill-opacity:1;fill-rule:nonzero;stroke:none;stroke-width:41.5748;stroke-linecap:butt;stroke-linejoin:miter;stroke-miterlimit:4;stroke-dasharray:none;stroke-dashoffset:0;stroke-opacity:1;color-rendering:auto;image-rendering:auto;shape-rendering:auto;text-rendering:auto;enable-background:accumulate"
                       d="m 239.3418,560.54492 a 68.892408,68.892408 0 0 1 0.7207,13.87696 68.892408,68.892408 0 0 1 -7.26758,27.17968 l 197.62891,31.71289 a 68.892409,68.892409 0 0 1 -0.72266,-13.8789 68.892409,68.892409 0 0 1 7.26953,-27.17774 z"
                       transform="matrix(0.26458333,0,0,0.26458333,-6.6789703,32.495842)"
                       id="path1674"
                       inkscape:connector-curvature="0" /><path
                       style="color:#000000;font-style:normal;font-variant:normal;font-weight:normal;font-stretch:normal;font-size:medium;line-height:normal;font-family:sans-serif;font-variant-ligatures:normal;font-variant-position:normal;font-variant-caps:normal;font-variant-numeric:normal;font-variant-alternates:normal;font-feature-settings:normal;text-indent:0;text-align:start;text-decoration:none;text-decoration-line:none;text-decoration-style:solid;text-decoration-color:#000000;letter-spacing:normal;word-spacing:normal;text-transform:none;writing-mode:lr-tb;direction:ltr;text-orientation:mixed;dominant-baseline:auto;baseline-shift:baseline;text-anchor:start;white-space:normal;shape-padding:0;clip-rule:nonzero;display:inline;overflow:visible;visibility:visible;opacity:1;isolation:auto;mix-blend-mode:normal;color-interpolation:sRGB;color-interpolation-filters:linearRGB;solid-color:#000000;solid-opacity:1;vector-effect:none;fill:#007ea5;fill-opacity:1;fill-rule:nonzero;stroke:none;stroke-width:41.5748;stroke-linecap:butt;stroke-linejoin:miter;stroke-miterlimit:4;stroke-dasharray:none;stroke-dashoffset:0;stroke-opacity:1;color-rendering:auto;image-rendering:auto;shape-rendering:auto;text-rendering:auto;enable-background:accumulate"
                       d="m 601.13281,377.19922 -91.21875,178.08203 a 68.892408,68.892408 0 0 1 36.99414,18.98242 L 638.125,396.18359 a 68.892409,68.892409 0 0 1 -36.99219,-18.98437 z"
                       transform="matrix(0.26458333,0,0,0.26458333,-6.6789703,32.495842)"
                       id="path1676"
                       inkscape:connector-curvature="0" /><path
                       style="color:#000000;font-style:normal;font-variant:normal;font-weight:normal;font-stretch:normal;font-size:medium;line-height:normal;font-family:sans-serif;font-variant-ligatures:normal;font-variant-position:normal;font-variant-caps:normal;font-variant-numeric:normal;font-variant-alternates:normal;font-feature-settings:normal;text-indent:0;text-align:start;text-decoration:none;text-decoration-line:none;text-decoration-style:solid;text-decoration-color:#000000;letter-spacing:normal;word-spacing:normal;text-transform:none;writing-mode:lr-tb;direction:ltr;text-orientation:mixed;dominant-baseline:auto;baseline-shift:baseline;text-anchor:start;white-space:normal;shape-padding:0;clip-rule:nonzero;display:inline;overflow:visible;visibility:visible;opacity:1;isolation:auto;mix-blend-mode:normal;color-interpolation:sRGB;color-interpolation-filters:linearRGB;solid-color:#000000;solid-opacity:1;vector-effect:none;fill:#007ea5;fill-opacity:1;fill-rule:nonzero;stroke:none;stroke-width:41.5748;stroke-linecap:butt;stroke-linejoin:miter;stroke-miterlimit:4;stroke-dasharray:none;stroke-dashoffset:0;stroke-opacity:1;color-rendering:auto;image-rendering:auto;shape-rendering:auto;text-rendering:auto;enable-background:accumulate"
                       d="m 476.72266,125.33008 a 68.892408,68.892408 0 0 1 -29.47071,29.33203 l 141.26563,141.81055 a 68.892409,68.892409 0 0 1 29.46875,-29.33204 z"
                       transform="matrix(0.26458333,0,0,0.26458333,-6.6789703,32.495842)"
                       id="path1678"
                       inkscape:connector-curvature="0" /><path
                       style="color:#000000;font-style:normal;font-variant:normal;font-weight:normal;font-stretch:normal;font-size:medium;line-height:normal;font-family:sans-serif;font-variant-ligatures:normal;font-variant-position:normal;font-variant-caps:normal;font-variant-numeric:normal;font-variant-alternates:normal;font-feature-settings:normal;text-indent:0;text-align:start;text-decoration:none;text-decoration-line:none;text-decoration-style:solid;text-decoration-color:#000000;letter-spacing:normal;word-spacing:normal;text-transform:none;writing-mode:lr-tb;direction:ltr;text-orientation:mixed;dominant-baseline:auto;baseline-shift:baseline;text-anchor:start;white-space:normal;shape-padding:0;clip-rule:nonzero;display:inline;overflow:visible;visibility:visible;opacity:1;isolation:auto;mix-blend-mode:normal;color-interpolation:sRGB;color-interpolation-filters:linearRGB;solid-color:#000000;solid-opacity:1;vector-effect:none;fill:#007ea5;fill-opacity:1;fill-rule:nonzero;stroke:none;stroke-width:41.5748;stroke-linecap:butt;stroke-linejoin:miter;stroke-miterlimit:4;stroke-dasharray:none;stroke-dashoffset:0;stroke-opacity:1;color-rendering:auto;image-rendering:auto;shape-rendering:auto;text-rendering:auto;enable-background:accumulate"
                       d="m 347.78711,104.63086 -178.57617,90.49805 a 68.892409,68.892409 0 0 1 18.79297,37.08593 l 178.57421,-90.50195 a 68.892408,68.892408 0 0 1 -18.79101,-37.08203 z"
                       transform="matrix(0.26458333,0,0,0.26458333,-6.6789703,32.495842)"
                       id="path1680"
                       inkscape:connector-curvature="0" /><path
                       style="color:#000000;font-style:normal;font-variant:normal;font-weight:normal;font-stretch:normal;font-size:medium;line-height:normal;font-family:sans-serif;font-variant-ligatures:normal;font-variant-position:normal;font-variant-caps:normal;font-variant-numeric:normal;font-variant-alternates:normal;font-feature-settings:normal;text-indent:0;text-align:start;text-decoration:none;text-decoration-line:none;text-decoration-style:solid;text-decoration-color:#000000;letter-spacing:normal;word-spacing:normal;text-transform:none;writing-mode:lr-tb;direction:ltr;text-orientation:mixed;dominant-baseline:auto;baseline-shift:baseline;text-anchor:start;white-space:normal;shape-padding:0;clip-rule:nonzero;display:inline;overflow:visible;visibility:visible;opacity:1;isolation:auto;mix-blend-mode:normal;color-interpolation:sRGB;color-interpolation-filters:linearRGB;solid-color:#000000;solid-opacity:1;vector-effect:none;fill:#007ea5;fill-opacity:1;fill-rule:nonzero;stroke:none;stroke-width:41.5748;stroke-linecap:butt;stroke-linejoin:miter;stroke-miterlimit:4;stroke-dasharray:none;stroke-dashoffset:0;stroke-opacity:1;color-rendering:auto;image-rendering:auto;shape-rendering:auto;text-rendering:auto;enable-background:accumulate"
                       d="m 446.92578,154.82617 a 68.892408,68.892408 0 0 1 -34.98242,7.48242 68.892408,68.892408 0 0 1 -6.0293,-0.63281 l 15.81836,101.29102 43.16211,6.92578 z m -16,167.02735 37.40039,239.48242 a 68.892409,68.892409 0 0 1 33.91406,-6.94336 68.892409,68.892409 0 0 1 7.20704,0.79101 L 474.08984,328.77734 Z"
                       transform="matrix(0.26458333,0,0,0.26458333,-6.6789703,32.495842)"
                       id="path9758"
                       inkscape:connector-curvature="0" /><path
                       style="color:#000000;font-style:normal;font-variant:normal;font-weight:normal;font-stretch:normal;font-size:medium;line-height:normal;font-family:sans-serif;font-variant-ligatures:normal;font-variant-position:normal;font-variant-caps:normal;font-variant-numeric:normal;font-variant-alternates:normal;font-feature-settings:normal;text-indent:0;text-align:start;text-decoration:none;text-decoration-line:none;text-decoration-style:solid;text-decoration-color:#000000;letter-spacing:normal;word-spacing:normal;text-transform:none;writing-mode:lr-tb;direction:ltr;text-orientation:mixed;dominant-baseline:auto;baseline-shift:baseline;text-anchor:start;white-space:normal;shape-padding:0;clip-rule:nonzero;display:inline;overflow:visible;visibility:visible;opacity:1;isolation:auto;mix-blend-mode:normal;color-interpolation:sRGB;color-interpolation-filters:linearRGB;solid-color:#000000;solid-opacity:1;vector-effect:none;fill:#007ea5;fill-opacity:1;fill-rule:nonzero;stroke:none;stroke-width:41.5748;stroke-linecap:butt;stroke-linejoin:miter;stroke-miterlimit:4;stroke-dasharray:none;stroke-dashoffset:0;stroke-opacity:1;color-rendering:auto;image-rendering:auto;shape-rendering:auto;text-rendering:auto;enable-background:accumulate"
                       d="m 188.13086,232.97461 a 68.892408,68.892408 0 0 1 0.75781,14.0957 68.892408,68.892408 0 0 1 -7.16015,26.98242 l 101.36914,16.28125 19.92382,-38.9082 z m 173.73633,27.90039 -19.92578,38.91211 239.51367,38.4668 a 68.892409,68.892409 0 0 1 -0.69531,-13.71875 68.892409,68.892409 0 0 1 7.34961,-27.32422 z"
                       transform="matrix(0.26458333,0,0,0.26458333,-6.6789703,32.495842)"
                       id="path9760"
                       inkscape:connector-curvature="0" /></g><circle
                     style="font-size:98.0704px;line-height:0;fill:#007ea5;stroke-width:0.163702;fill-opacity:1;stroke:none;stroke-opacity:0.960784"
                     id="path817"
                     cx="59.155285"
                     cy="7.8371253"
                     transform="rotate(3.1178177)"
                     r="10.252552" /><circle
                     id="path819"
                     style="font-size:98.0704px;line-height:0;fill:#bf6100;stroke-width:0.163702;fill-opacity:1;stroke:none;stroke-opacity:0.960784"
                     cx="99.472252"
                     cy="44.129559"
                     transform="rotate(3.1178177)"
                     r="10.252552" /><circle
                     id="path823"
                     style="font-size:98.0704px;line-height:0;fill:#007ea5;stroke-width:0.163702;fill-opacity:1;stroke:none;stroke-opacity:0.960784"
                     cx="77.406044"
                     cy="93.678596"
                     transform="rotate(3.1178177)"
                     r="10.252552" /><circle
                     style="font-size:98.0704px;line-height:0;fill:#007ea5;stroke-width:0.163702;fill-opacity:1;stroke:none;stroke-opacity:0.960784"
                     id="path825"
                     cx="23.451401"
                     cy="88.009163"
                     transform="rotate(3.1178177)"
                     r="10.252552" /><circle
                     id="path827"
                     style="font-size:98.0704px;line-height:0;fill:#007ea5;stroke-width:0.163702;fill-opacity:1;stroke:none;stroke-opacity:0.960784"
                     cx="12.171813"
                     cy="34.956211"
                     transform="rotate(3.1178177)"
                     r="10.252552" /><path
                     d="m 158.02896,80.236651 q 0,2.45176 0.19614,4.118957 0.19614,1.569126 0.98071,2.54983 0.78456,0.980704 2.54983,1.569126 1.86333,0.588423 5.09966,0.980704 0.58842,0.09807 0.88263,0.588423 0.29421,0.392281 0.29421,0.980704 0,0.490352 -0.29421,0.882633 -0.29421,0.490352 -0.78456,0.490352 -3.92282,0 -7.06107,-0.392281 -3.04018,-0.294212 -5.9823,-0.294212 -3.13825,0 -6.2765,0.294212 -3.13825,0.392281 -6.08037,0.392281 -0.58842,0 -0.88263,-0.490352 -0.29421,-0.392281 -0.29421,-0.882633 0,-0.588423 0.29421,-0.980704 0.29421,-0.490352 0.98071,-0.588423 2.6479,-0.294211 4.02088,-0.784563 1.47106,-0.588422 2.15755,-1.569126 0.68649,-0.980704 0.78456,-2.549831 0.19614,-1.569126 0.19614,-4.020886 V 53.659574 q 0,-1.372986 -0.19614,-1.569127 -0.19614,-0.294211 -1.47105,-0.294211 h -4.90352 q -0.58842,0 -0.88264,-0.490352 -0.29421,-0.588422 -0.29421,-1.176845 0,-0.686492 0.29421,-1.274915 0.39229,-0.588422 0.98071,-0.686493 l 5.2958,-0.490352 q 0.39228,0 0.58842,-0.09807 0.29421,-0.09807 0.39228,-0.392282 0.19614,-0.392281 0.19614,-1.176844 0,-0.882634 0,-2.35369 0,-4.315097 1.27492,-7.943702 1.37298,-3.726675 3.92282,-6.374576 2.54983,-2.745971 6.2765,-4.217027 3.72668,-1.569126 8.53212,-1.569126 2.45176,0 4.80545,0.490352 2.45176,0.490352 4.3151,1.667197 1.96141,1.078774 3.13825,2.942112 1.17685,1.765267 1.17685,4.413167 0,1.765267 -1.37299,3.040183 -1.37298,1.274915 -3.33439,1.274915 -1.6672,0 -3.04018,-0.784563 -1.27492,-0.882634 -1.27492,-2.549831 0,-1.471056 0.39228,-1.863337 0.49036,-0.490352 0.49036,-1.176845 0,-1.961408 -1.6672,-2.942112 -1.6672,-0.980704 -4.21703,-0.980704 -3.82474,0 -5.88422,1.667197 -2.05948,1.667197 -3.04018,4.217027 -0.98071,2.54983 -1.17685,5.590013 -0.0981,2.942111 -0.0981,5.590012 v 1.863338 q 0,1.176844 0.19614,1.471056 0.19614,0.19614 1.27492,0.19614 h 9.51283 q 0.58842,0 0.88263,0.686493 0.29421,0.588423 0.29421,1.372986 0,0.784563 -0.29421,1.471056 -0.29421,0.588422 -0.88263,0.588422 h -9.51283 q -1.07878,0 -1.27492,0.294211 -0.19614,0.196141 -0.19614,1.569127 z"
                     style="line-height:5.4;font-family:'Plantagenet Cherokee';-inkscape-font-specification:'Plantagenet Cherokee'"
                     id="path7220" /><path
                     d="m 169.91364,111.52111 q -0.44622,0 -0.7012,-0.25499 -0.25498,-0.25498 -0.38247,-0.63745 -0.0638,-0.38248 0,-0.76495 0.12749,-0.38248 0.38247,-0.63746 4.4622,-3.6335 7.45825,-6.18333 3.05979,-2.54983 4.84467,-4.589692 1.84863,-2.039862 2.61358,-3.824742 0.76494,-1.78488 0.76494,-3.888488 0,-1.338659 -0.19123,-2.613573 -0.19124,-1.274915 -0.76495,-2.2311 -0.57371,-0.956186 -1.59364,-1.529897 -0.95619,-0.637457 -2.54983,-0.637457 -1.5299,0 -2.61358,0.44622 -1.08367,0.382474 -1.84862,1.019931 -0.7012,0.573712 -1.01993,1.274914 -0.31873,0.637457 -0.31873,1.083677 0,0.191237 0,0.509966 0.0637,0.318728 0.19124,0.637457 0.19123,0.254983 0.57371,0.509965 0.38247,0.191238 1.08367,0.191238 1.08368,0 1.40241,0.637457 0.38247,0.637457 0.38247,1.402405 0,0.764948 -0.76494,1.402405 -0.70121,0.637457 -1.97612,0.637457 -1.21117,0 -1.97612,-0.44622 -0.76495,-0.446219 -1.21117,-1.083676 -0.44622,-0.701203 -0.63745,-1.466152 -0.12749,-0.828694 -0.12749,-1.529896 0,-1.466151 0.63745,-2.804811 0.7012,-1.33866 1.97612,-2.294845 1.27491,-1.019932 3.12354,-1.593643 1.91237,-0.573711 4.39845,-0.573711 2.48608,0 4.39845,0.701202 1.97612,0.637457 3.25104,1.78488 1.27491,1.147423 1.91237,2.741065 0.7012,1.529897 0.7012,3.251031 0,2.486082 -1.40241,4.780928 -1.4024,2.294845 -3.56976,4.334707 -2.16735,1.976118 -4.78092,3.697248 -2.54983,1.65739 -4.90842,3.0598 -0.31873,0.12749 -0.31873,0.44622 0,0.25498 0.31873,0.25498 h 9.17938 q 0.82869,0 1.4024,-0.12749 0.63746,-0.19124 1.08368,-0.57371 0.50997,-0.44622 0.95619,-1.21117 0.50996,-0.8287 1.01993,-2.16736 0.12749,-0.25498 0.44622,-0.38247 0.31873,-0.19124 0.63746,-0.12749 0.31872,0 0.57371,0.19124 0.25498,0.19123 0.25498,0.50996 -0.50997,2.16736 -1.01993,4.20722 -0.50997,1.97611 -0.44622,4.4622 z"
                     style="font-size:63.7457px;line-height:5.4;font-family:'Plantagenet Cherokee';-inkscape-font-specification:'Plantagenet Cherokee';baseline-shift:sub;fill:#524200"
                     id="path7222" /><path
                     d="m 219.29609,73.208555 q 0,-1.078774 -0.0981,-1.274915 -0.0981,-0.294211 -0.49036,-0.294211 -8.04177,0.686493 -11.96458,3.432464 -3.82475,2.6479 -3.82475,6.864927 0,2.942112 1.47106,5.001591 1.47105,1.961408 4.90352,1.961408 2.25562,0 4.70738,-0.882634 2.54983,-0.882634 4.51123,-2.54983 0.78457,-0.784563 0.78457,-1.569127 z m 9.21861,9.708969 q 0,3.432464 0.58843,4.80545 0.68649,1.372985 2.54983,1.372985 1.07877,0 1.76526,-0.19614 0.6865,-0.294212 1.96141,-1.078775 0.29421,-0.196141 0.58842,0 0.39229,0.196141 0.58843,0.588423 0.29421,0.294211 0.39228,0.784563 0.0981,0.392281 -0.19614,0.686493 -3.82475,4.609308 -9.02248,4.609308 -2.84404,0 -4.90352,-1.47106 -1.96141,-1.56912 -2.94211,-3.6286 -0.19614,-0.490352 -0.58842,-0.09807 -2.54983,2.25562 -5.9823,3.72667 -3.33439,1.47106 -8.43405,1.47106 -5.59001,0 -8.6302,-2.94211 -3.04018,-3.040183 -3.04018,-8.532125 0,-7.061069 6.57072,-10.787744 6.57071,-3.824745 19.12373,-3.824745 0.19614,0 0.29421,-0.490352 0.0981,-0.490352 0.0981,-2.255619 v -2.647901 q 0,-2.45176 -0.39228,-4.609309 -0.39229,-2.157548 -1.37299,-3.726675 -0.88263,-1.667197 -2.54983,-2.54983 -1.6672,-0.980704 -4.11896,-0.980704 -3.6286,0 -5.88422,1.471056 -2.25562,1.372985 -2.25562,3.628605 0,1.078774 0.68649,2.157548 0.6865,0.980704 0.6865,2.059479 0,1.372985 -1.37299,2.6479 -1.37299,1.274915 -3.33439,1.274915 -2.6479,0 -3.82475,-1.372985 -1.07877,-1.471056 -1.07877,-3.530534 0,-2.45176 1.37298,-4.609309 1.37299,-2.255619 3.72668,-3.824745 2.35369,-1.569127 5.49194,-2.45176 3.13825,-0.980704 6.57072,-0.980704 7.84563,0 12.35687,3.628604 4.51123,3.628605 4.51123,12.062659 z"
                     style="line-height:5.4;font-family:'Plantagenet Cherokee';-inkscape-font-specification:'Plantagenet Cherokee';fill:#007ea5"
                     id="path7224" /><path
                     d="m 248.55219,82.285421 q 0,0.784563 0.68649,2.157549 0.6865,1.274915 1.96141,2.54983 1.37299,1.176845 3.23633,2.157549 1.9614,0.882633 4.41316,0.882633 3.04019,0 5.09966,-1.569126 2.15755,-1.569126 3.43247,-4.315097 1.37298,-2.745972 1.96141,-6.374576 0.58842,-3.628605 0.58842,-7.649491 0,-8.335984 -2.25562,-12.454941 -2.25562,-4.217027 -7.55142,-4.217027 -2.54983,0 -4.70738,0.882634 -2.05948,0.784563 -3.62861,2.157549 -1.47105,1.274915 -2.35368,3.138252 -0.88264,1.765268 -0.88264,3.628605 z m -9.21862,-12.945292 q 0,-4.80545 -0.19614,-7.943702 -0.0981,-3.236324 -0.78456,-5.099661 -0.58842,-1.863338 -2.05948,-2.647901 -1.37298,-0.882633 -3.92281,-0.980704 -0.49036,0 -0.78457,-0.490352 -0.19614,-0.490352 -0.19614,-0.980704 0,-0.490352 0.19614,-0.980704 0.19614,-0.490352 0.58843,-0.490352 2.15754,-0.19614 5.68808,-0.588422 3.53053,-0.490352 6.86493,-1.274915 1.37298,-0.294211 2.05947,0 0.78457,0.294211 0.98071,1.667197 l 0.39228,5.197731 q 0,0.294211 0.29421,0.09807 1.86334,-3.138253 5.39387,-5.393872 3.62861,-2.353689 8.6302,-2.353689 4.41317,0 7.74756,1.863337 3.33439,1.765267 5.49194,4.90352 2.25562,3.040182 3.3344,7.061069 1.17684,4.020886 1.17684,8.335983 0,5.295802 -1.47106,9.80704 -1.47105,4.511238 -4.21702,7.845632 -2.74597,3.334393 -6.57072,5.197731 -3.82475,1.863337 -8.63019,1.863337 -3.04019,0 -5.39388,-0.490352 -2.35369,-0.392281 -4.70738,-1.176845 -0.49035,-0.19614 -0.58842,0 -0.0981,0.196141 -0.0981,0.980704 v 15.004765 q 0,2.45176 0.0981,4.11896 0.19614,1.66719 0.98071,2.74597 0.78456,1.07877 2.45176,1.66719 1.66719,0.58843 4.80545,0.88264 0.58842,0.0981 0.78456,0.49035 0.29421,0.49035 0.29421,0.9807 0,0.58843 -0.29421,0.98071 -0.29421,0.49035 -0.78456,0.49035 -4.41317,0 -7.25721,-0.39228 -2.74597,-0.29421 -5.59002,-0.29421 -2.94211,0 -5.98229,0.29421 -3.04018,0.39228 -6.17844,0.39228 -0.49035,0 -0.78456,-0.49035 -0.29421,-0.39228 -0.29421,-0.98071 0,-0.49035 0.29421,-0.9807 0.29421,-0.39228 0.88263,-0.49035 2.74598,-0.29421 4.21703,-0.88264 1.56913,-0.58842 2.25562,-1.66719 0.68649,-0.98071 0.78456,-2.54983 0.0981,-1.47106 0.0981,-3.72668 z"
                     style="line-height:5.4;font-family:'Plantagenet Cherokee';-inkscape-font-specification:'Plantagenet Cherokee';fill:#007ea5"
                     id="path7226" /></g></g></g></g></g></g></g></g></svg>
